<svg width="80" height="80" fill="none" xmlns="http://www.w3.org/2000/svg"><g clip-path="url(#clip0_17_130)"><mask id="mask0_17_130" style="mask-type:alpha" maskUnits="userSpaceOnUse" x="0" y="0" width="80" height="80"><path fill-rule="evenodd" clip-rule="evenodd" d="M56.7295 79.4537C57.9895 79.9446 59.4262 79.9131 60.698 79.3011L77.1686 71.3758C78.8994 70.543 80 68.7914 80 66.8698V13.1306C80 11.209 78.8994 9.45744 77.1687 8.62464L60.698 0.699004C59.029 -0.104104 57.0757 0.0926075 55.6108 1.15756C55.4016 1.30969 55.2022 1.47954 55.0152 1.66673L23.4841 30.4332L9.74976 20.0077C8.4712 19.0372 6.6829 19.1167 5.49546 20.1969L1.09042 24.2039C-0.362041 25.5251 -0.363706 27.8102 1.08682 29.1336L12.9977 40.0001L1.08682 50.8666C-0.363706 52.1899 -0.362041 54.475 1.09042 55.7962L5.49546 59.8033C6.6829 60.8834 8.4712 60.963 9.74976 59.9924L23.4841 49.567L55.0152 78.3334C55.514 78.8325 56.0997 79.2083 56.7295 79.4537ZM60.0122 21.8391L36.0873 40.0001L60.0122 58.161V21.8391Z" fill="white"/></mask><g mask="url(#mask0_17_130)"><path d="M77.1692 8.63728L60.6856 0.700751C58.7776 -0.217901 56.4974 0.169606 55 1.66698L1.0389 50.8669C-0.412513 52.1902 -0.410845 54.4753 1.0425 55.7965L5.45022 59.8035C6.63838 60.8837 8.4278 60.9632 9.70708 59.9927L74.6888 10.6962C76.8688 9.0424 80 10.5973 80 13.3337V13.1423C80 11.2215 78.8997 9.47056 77.1692 8.63728Z" fill="#0065A9"/><g filter="url(#filter0_d_17_130)"><path d="M77.1692 71.3632L60.6856 79.2998C58.7776 80.2186 56.4974 79.8309 55 78.3335L1.0389 29.1337C-0.412513 27.8103 -0.410845 25.5252 1.0425 24.204L5.45022 20.197C6.63838 19.1168 8.4278 19.0373 9.70708 20.0078L74.6888 69.3042C76.8688 70.9581 80 69.4032 80 66.6669V66.8582C80 68.779 78.8997 70.5299 77.1692 71.3632Z" fill="#007ACC"/></g><g filter="url(#filter1_d_17_130)"><path d="M60.6862 79.3011C58.7777 80.2193 56.4975 79.8309 55 78.3334C56.8451 80.1785 60 78.8717 60 76.2623V3.7378C60 1.12841 56.8451 -0.178387 55 1.66673C56.4975 0.16922 58.7777 -0.218835 60.6862 0.699004L77.167 8.62466C78.8987 9.45746 80 11.2091 80 13.1307V66.8698C80 68.7914 78.8987 70.543 77.1669 71.3758L60.6862 79.3011Z" fill="#1F9CF0"/></g><g style="mix-blend-mode:overlay" opacity="0.25"><path fill-rule="evenodd" clip-rule="evenodd" d="M56.6809 79.4537C57.9409 79.9445 59.3777 79.9131 60.6494 79.3012L77.12 71.3758C78.8508 70.543 79.9514 68.7914 79.9514 66.8697V13.1307C79.9514 11.209 78.8508 9.45741 77.1201 8.62461L60.6494 0.699005C58.9804 -0.104103 57.0271 0.092608 55.5622 1.15755C55.353 1.30969 55.1536 1.47954 54.9666 1.66673L23.4355 30.4332L9.70116 20.0077C8.42268 19.0372 6.63432 19.1168 5.44688 20.1968L1.04184 24.2039C-0.410626 25.5252 -0.41229 27.8102 1.03824 29.1336L12.9491 40L1.03824 50.8666C-0.41229 52.19 -0.410626 54.475 1.04184 55.7962L5.44688 59.8032C6.63432 60.8834 8.42268 60.9629 9.70116 59.9925L23.4355 49.5669L54.9666 78.3334C55.4654 78.8325 56.0511 79.2084 56.6809 79.4537ZM59.9636 21.8392L36.0387 40L59.9636 58.161V21.8392Z" fill="url(#paint0_linear_17_130)"/></g></g></g><defs><filter id="filter0_d_17_130" x="-8.38192" y="10.9967" width="96.7153" height="77.1298" filterUnits="userSpaceOnUse" color-interpolation-filters="sRGB"><feFlood flood-opacity="0" result="BackgroundImageFix"/><feColorMatrix in="SourceAlpha" type="matrix" values="0 0 0 0 0 0 0 0 0 0 0 0 0 0 0 0 0 0 127 0" result="hardAlpha"/><feOffset/><feGaussianBlur stdDeviation="4.16667"/><feColorMatrix type="matrix" values="0 0 0 0 0 0 0 0 0 0 0 0 0 0 0 0 0 0 0.25 0"/><feBlend mode="overlay" in2="BackgroundImageFix" result="effect1_dropShadow_17_130"/><feBlend mode="normal" in="SourceGraphic" in2="effect1_dropShadow_17_130" result="shape"/></filter><filter id="filter1_d_17_130" x="46.6667" y="-8.12704" width="41.6667" height="96.2543" filterUnits="userSpaceOnUse" color-interpolation-filters="sRGB"><feFlood flood-opacity="0" result="BackgroundImageFix"/><feColorMatrix in="SourceAlpha" type="matrix" values="0 0 0 0 0 0 0 0 0 0 0 0 0 0 0 0 0 0 127 0" result="hardAlpha"/><feOffset/><feGaussianBlur stdDeviation="4.16667"/><feColorMatrix type="matrix" values="0 0 0 0 0 0 0 0 0 0 0 0 0 0 0 0 0 0 0.25 0"/><feBlend mode="overlay" in2="BackgroundImageFix" result="effect1_dropShadow_17_130"/><feBlend mode="normal" in="SourceGraphic" in2="effect1_dropShadow_17_130" result="shape"/></filter><linearGradient id="paint0_linear_17_130" x1="39.9514" y1="0.206298" x2="39.9514" y2="79.7939" gradientUnits="userSpaceOnUse"><stop stop-color="white"/><stop offset="1" stop-color="white" stop-opacity="0"/></linearGradient><clipPath id="clip0_17_130"><rect width="80" height="80" fill="white"/></clipPath></defs></svg>