<svg width="80" height="80" viewBox="0 0 80 80" fill="none" xmlns="http://www.w3.org/2000/svg">
<g clip-path="url(#clip0_17_84)">
<path d="M76.25 0H3.75C1.67893 0 0 1.67893 0 3.75V76.25C0 78.3211 1.67893 80 3.75 80H76.25C78.3211 80 80 78.3211 80 76.25V3.75C80 1.67893 78.3211 0 76.25 0Z" fill="#3178C6"/>
<path fill-rule="evenodd" clip-rule="evenodd" d="M46.4139 62.1675V70.9338C47.8341 71.6638 49.5137 72.2119 51.4529 72.5769C53.3921 72.9425 55.4359 73.125 57.5845 73.125C59.6784 73.125 61.6676 72.9244 63.5519 72.5225C65.4369 72.1206 67.0887 71.4588 68.5094 70.5363C69.9294 69.6138 71.0538 68.4087 71.8825 66.92C72.7106 65.4319 73.125 63.5919 73.125 61.4004C73.125 59.8116 72.8881 58.4191 72.415 57.2229C71.9412 56.0267 71.2587 54.9629 70.3662 54.0315C69.4744 53.1001 68.4044 52.2646 67.1575 51.525C65.91 50.7854 64.5037 50.0868 62.9375 49.4294C61.7905 48.9546 60.7617 48.4934 59.8514 48.046C58.9409 47.5986 58.1671 47.142 57.5299 46.6763C56.8926 46.2106 56.4009 45.7175 56.055 45.197C55.7091 44.6766 55.5361 44.0876 55.5361 43.4301C55.5361 42.8274 55.6908 42.2841 56.0004 41.8002C56.3099 41.3163 56.7469 40.9008 57.3114 40.5538C57.8758 40.2068 58.5677 39.9374 59.3871 39.7457C60.2064 39.5539 61.1168 39.458 62.1182 39.458C62.8469 39.458 63.6156 39.5128 64.4263 39.6224C65.2363 39.7319 66.0512 39.9009 66.8706 40.1292C67.69 40.3574 68.4863 40.6451 69.2606 40.9921C70.0344 41.3391 70.7488 41.7408 71.4044 42.1974V34.0067C70.075 33.4953 68.6231 33.1164 67.0481 32.8698C65.4731 32.6233 63.6663 32.5 61.6266 32.5C59.5509 32.5 57.5845 32.7237 55.7272 33.1711C53.8701 33.6186 52.2359 34.3171 50.8248 35.2667C49.4136 36.2164 48.2984 37.4263 47.4791 38.8964C46.6597 40.3666 46.25 42.1243 46.25 44.1698C46.25 46.7813 47.0011 49.0093 48.5033 50.8538C50.0054 52.6984 52.2859 54.2598 55.3449 55.5382C56.5466 56.0312 57.6664 56.5152 58.7043 56.9901C59.7421 57.4649 60.6389 57.9579 61.3945 58.4693C62.1501 58.9807 62.7463 59.5377 63.1831 60.1403C63.6206 60.743 63.8387 61.4278 63.8387 62.1949C63.8387 62.7613 63.7025 63.2862 63.4294 63.77C63.1562 64.2537 62.7419 64.6737 62.1866 65.03C61.6312 65.3862 60.9393 65.665 60.1108 65.8656C59.2824 66.0663 58.3128 66.1669 57.2021 66.1669C55.3084 66.1669 53.4331 65.8337 51.5758 65.1669C49.7186 64.5006 47.998 63.5006 46.4139 62.1675ZM31.6891 40.3465H43.125V33.125H11.25V40.3465H22.6299V72.5H31.6891V40.3465Z" fill="white"/>
</g>
<defs>
<clipPath id="clip0_17_84">
<rect width="80" height="80" fill="white"/>
</clipPath>
</defs>
</svg>
