<svg width="80" height="80" viewBox="0 0 80 80" fill="none" xmlns="http://www.w3.org/2000/svg">
<path d="M11.0938 71.875L4.6875 0H75.1562L68.75 71.875L39.8438 80" fill="#E34F26"/>
<path d="M40 73.75L63.2812 67.3438L68.75 5.78125H40" fill="#EF652A"/>
<path d="M40 32.5H28.2812L27.5 23.4375H40V14.6875H39.8438H17.8125L17.9688 17.0312L20.1562 41.4062H40V32.5ZM40 55.4688H39.8438L30 52.8125L29.375 45.7812H24.6875H20.625L21.7188 59.6875L39.8438 64.6875H40V55.4688Z" fill="#EBEBEB"/>
<path d="M39.8438 32.5V41.4062H50.7812L49.6875 52.8125L39.8438 55.4688V64.6875L57.9688 59.6875L58.125 58.125L60.1562 34.8438L60.4688 32.5H57.9688H39.8438ZM39.8438 14.6875V20.1562V23.4375H61.25L61.4062 21.5625L61.875 17.0312L62.0312 14.6875H39.8438Z" fill="white"/>
</svg>
