<svg width="80" height="80" viewBox="0 0 80 80" fill="none" xmlns="http://www.w3.org/2000/svg">
<g clip-path="url(#clip0_17_68)">
<path d="M80 0H0V80H80V0Z" fill="#F7DF1E"/>
<path d="M21.0349 66.8537L27.1571 63.1487C28.3382 65.2428 29.4127 67.0145 31.9898 67.0145C34.4602 67.0145 36.0176 66.0482 36.0176 62.2894V36.7275H43.5355V62.3958C43.5355 70.1825 38.9713 73.7267 32.3121 73.7267C26.2979 73.7267 22.807 70.612 21.0349 66.8531" fill="black"/>
<path d="M47.6191 66.0482L53.7406 62.5039C55.352 65.1355 57.4463 67.0686 61.1515 67.0686C64.2666 67.0686 66.253 65.5112 66.253 63.3631C66.253 60.7855 64.2125 59.8725 60.7755 58.3693L58.8964 57.5632C53.4723 55.2545 49.8742 52.3547 49.8742 46.2328C49.8742 40.5942 54.1702 36.2979 60.8831 36.2979C65.6625 36.2979 69.0993 37.9628 71.5693 42.3126L65.7158 46.0715C64.4269 43.7626 63.031 42.8498 60.8831 42.8498C58.6814 42.8498 57.285 44.2459 57.285 46.0715C57.285 48.3271 58.6814 49.2401 61.9031 50.6364L63.7825 51.4418C70.1729 54.1807 73.771 56.9729 73.771 63.2556C73.771 70.0223 68.4547 73.7274 61.3126 73.7274C54.3315 73.7274 49.8206 70.3982 47.6191 66.0482Z" fill="black"/>
</g>
<defs>
<clipPath id="clip0_17_68">
<rect width="80" height="80" fill="white"/>
</clipPath>
</defs>
</svg>
