<svg width="80" height="80" viewBox="0 0 80 80" fill="none" xmlns="http://www.w3.org/2000/svg">
<g clip-path="url(#clip0_17_73)">
<path d="M0 -0.5H67.2C70.5948 -0.5 73.8505 0.848567 76.251 3.24903C78.6514 5.6495 80 8.90523 80 12.3V66.7C80 70.0948 78.6514 73.3505 76.251 75.751C73.8505 78.1514 70.5948 79.5 67.2 79.5H12.8C9.40523 79.5 6.1495 78.1514 3.74903 75.751C1.34857 73.3505 0 70.0948 0 66.7L0 -0.5Z" fill="#663399"/>
<path d="M28.648 73.5999C23.5096 73.5951 20.3392 70.7015 20.4 65.3767V51.9055C20.4 49.2063 21.1904 47.1535 22.7712 45.7487C25.6104 43.0135 32.1976 42.8471 34.9784 45.7903C36.692 47.3015 37.3384 50.3887 37.1848 53.2695H31.2872C31.332 52.1375 31.272 50.4231 30.6064 49.7775C29.7416 48.6071 27.4576 48.7447 26.8536 49.9631C26.4824 50.6239 26.2968 51.6023 26.2968 52.8967V64.5911C26.2968 67.0431 27.1488 68.2831 28.8536 68.3103C29.6504 68.3103 30.256 68.0207 30.668 67.4423C31.2432 66.7559 31.3328 65.2359 31.2864 64.1367H37.184C37.5872 69.7423 34.2784 73.6695 28.6472 73.5999H28.648ZM47.3712 73.5999C41.6776 73.6783 39.1304 69.6271 39.288 64.1367H44.8552C44.7008 66.5303 45.5232 68.7103 47.4944 68.5583C48.3736 68.5583 48.9928 68.2831 49.3504 67.7319C50.0304 66.7247 50.1576 63.8159 49.1856 62.6903C48.5064 61.6063 46.0632 60.6495 44.7728 60.0047C42.9304 59.1231 41.604 58.0767 40.7928 56.8639C38.9632 54.1727 39.1328 48.2655 41.7 45.8719C44.1944 42.9183 50.7088 42.7823 53.2056 45.8103C54.7456 47.3711 55.4184 50.4423 55.288 53.2687H49.9264C49.972 52.1071 49.8624 50.2327 49.4112 49.5495C49.0952 48.9711 48.4968 48.6815 47.6176 48.6815C46.0504 48.6815 45.2672 49.6183 45.2672 51.4911C45.284 53.4799 46.0592 54.2959 47.8656 55.1271C50.2048 56.0359 53.1792 57.5879 54.2576 59.4663C57.4736 65.1895 55.2672 73.9319 47.3704 73.5983L47.3712 73.5999ZM65.352 73.5999C59.6584 73.6783 57.1112 69.6271 57.2688 64.1367H62.836C62.6816 66.5303 63.504 68.7103 65.4752 68.5583C66.3544 68.5583 66.9736 68.2831 67.3312 67.7319C68.0112 66.7247 68.1384 63.8159 67.1664 62.6903C66.4872 61.6063 64.044 60.6495 62.7536 60.0047C60.9112 59.1231 59.5848 58.0767 58.7736 56.8639C56.944 54.1727 57.1136 48.2655 59.6808 45.8719C62.1752 42.9183 68.6896 42.7823 71.1864 45.8103C72.7264 47.3711 73.3992 50.4423 73.2688 53.2687H67.9072C67.9528 52.1071 67.8432 50.2327 67.392 49.5495C67.076 48.9711 66.4776 48.6815 65.5984 48.6815C64.0312 48.6815 63.248 49.6183 63.248 51.4911C63.2648 53.4799 64.04 54.2959 65.8464 55.1271C68.1856 56.0359 71.16 57.5879 72.2384 59.4663C75.4544 65.1895 73.248 73.9319 65.3512 73.5983L65.352 73.5999Z" fill="white"/>
</g>
<defs>
<clipPath id="clip0_17_73">
<rect width="80" height="80" fill="white"/>
</clipPath>
</defs>
</svg>
