<svg width="80" height="80" viewBox="0 0 80 80" fill="none" xmlns="http://www.w3.org/2000/svg">
<g clip-path="url(#clip0_17_90)">
<path fill-rule="evenodd" clip-rule="evenodd" d="M39.9759 0.0251465C62.054 0.0251465 79.9516 17.9232 79.9516 40.0011C79.9516 62.0791 62.054 79.9768 39.9759 79.9768C17.8979 79.9768 0 62.0791 0 40.0011C0 17.9232 17.8979 0.0251465 39.9759 0.0251465Z" fill="#CD6699"/>
<path d="M32.0313 53.3171C32.613 55.4685 32.5491 57.4747 31.9484 59.2916C31.8817 59.4934 31.8081 59.6931 31.7284 59.8904C31.6486 60.0873 31.5622 60.2821 31.4696 60.4743C31.0062 61.4356 30.3845 62.3354 29.6231 63.1659C27.3005 65.6999 24.0553 66.658 22.6638 65.8507C21.1611 64.9797 21.9138 61.407 24.6067 58.5605C27.5038 55.4979 31.6721 53.5288 31.6721 53.5288L31.6657 53.5164C31.7858 53.4518 31.9078 53.3852 32.0313 53.3171ZM65.0514 17.1355C63.2411 10.0357 51.4688 7.70158 40.3269 11.6599C33.6963 14.0157 26.518 17.7129 21.3567 22.5405C15.2199 28.2805 14.2413 33.2764 14.6445 35.364C16.0673 42.73 26.1603 47.5448 30.3094 51.1171V51.1387C29.086 51.7409 20.1315 56.2726 18.036 60.9054C15.8249 65.7929 18.3878 69.3002 20.0848 69.7723C25.3425 71.235 30.7377 68.6039 33.6371 64.2792C36.4351 60.1056 36.2022 54.7162 34.9862 52.0353C36.6636 51.5928 38.619 51.3946 41.1041 51.6849C48.1166 52.5039 49.4925 56.8826 49.2294 58.7147C48.9666 60.5473 47.4956 61.5549 47.0039 61.8591C46.512 62.1634 46.362 62.2687 46.4034 62.4948C46.463 62.8236 46.6906 62.8114 47.11 62.7404C47.6871 62.6431 50.7922 61.2498 50.9249 57.8672C51.094 53.5726 46.9784 48.7686 39.6912 48.8941C36.69 48.9458 34.8029 49.2313 33.4398 49.7386C33.339 49.6238 33.2364 49.5096 33.1304 49.3965C28.6252 44.5899 20.2969 41.1898 20.6501 34.7281C20.7786 32.379 21.5951 26.1931 36.6531 18.6899C48.9882 12.5434 58.8628 14.2348 60.5694 17.9834C63.007 23.3387 55.2919 33.2924 42.4818 34.7281C37.6013 35.2753 35.0315 33.3836 34.3923 32.6792C33.7192 31.9376 33.619 31.9042 33.3678 32.0433C32.9584 32.27 33.2178 32.9248 33.3678 33.3151C33.7502 34.3105 35.3197 36.0756 37.9955 36.9536C40.3493 37.7261 46.0796 38.1505 53.0096 35.47C60.7708 32.4677 66.8315 24.1163 65.0514 17.1355Z" fill="white"/>
</g>
<defs>
<clipPath id="clip0_17_90">
<rect width="80" height="80" fill="white"/>
</clipPath>
</defs>
</svg>
