<svg width="54" height="80" viewBox="0 0 54 80" fill="none" xmlns="http://www.w3.org/2000/svg">
<path d="M0 66.6666C0 59.3029 5.96506 53.3333 13.3232 53.3333H26.6464V66.6666C26.6464 74.0303 20.6813 79.9999 13.3232 79.9999C5.96506 79.9999 0 74.0303 0 66.6666Z" fill="#24CB71"/>
<path d="M26.6465 0V26.6667H39.9697C47.3278 26.6667 53.2929 20.6971 53.2929 13.3333C53.2929 5.9696 47.3278 0 39.9697 0H26.6465Z" fill="#FF7237"/>
<path d="M39.8586 53.3334C47.2168 53.3334 53.1818 47.3639 53.1818 40.0001C53.1818 32.6363 47.2168 26.6667 39.8586 26.6667C32.5004 26.6667 26.5354 32.6363 26.5354 40.0001C26.5354 47.3639 32.5004 53.3334 39.8586 53.3334Z" fill="#00B6FF"/>
<path d="M0 13.3333C0 20.6971 5.96506 26.6667 13.3232 26.6667H26.6464V0H13.3232C5.96506 0 0 5.9696 0 13.3333Z" fill="#FF3737"/>
<path d="M0 40.0001C0 47.3638 5.96506 53.3334 13.3232 53.3334H26.6464V26.6667H13.3232C5.96506 26.6667 0 32.6363 0 40.0001Z" fill="#874FFF"/>
</svg>
