<?xml version="1.0" encoding="UTF-8" standalone="no"?><!DOCTYPE svg PUBLIC "-//W3C//DTD SVG 1.1//EN" "http://www.w3.org/Graphics/SVG/1.1/DTD/svg11.dtd"><svg width="100%" height="100%" viewBox="0 0 119 151" version="1.1" xmlns="http://www.w3.org/2000/svg" xmlns:xlink="http://www.w3.org/1999/xlink" xml:space="preserve" xmlns:serif="http://www.serif.com/" style="fill-rule:evenodd;clip-rule:evenodd;stroke-linejoin:round;stroke-miterlimit:2;"><g id="レイヤー-1" serif:id="レイヤー 1"><path d="M59.236,13.527c-25.203,-0 -45.708,20.504 -45.708,45.708c0,25.202 20.505,45.709 45.708,45.709c25.203,0 45.712,-20.507 45.712,-45.709c0,-25.204 -20.509,-45.708 -45.712,-45.708" style="fill:#fff;fill-rule:nonzero;"/><path d="M59.236,22.213c-20.414,-0 -37.023,16.607 -37.023,37.023c0,20.413 16.609,37.022 37.023,37.022c20.414,-0 37.029,-16.609 37.029,-37.022c0,-20.416 -16.615,-37.023 -37.029,-37.023" style="fill:#ed6d35;fill-rule:nonzero;"/><path d="M45.709,56.987l28.109,-0l0,6.3l-21.956,-0l-1.165,6.589c2.378,-1.454 6.933,-2.033 9.596,-2.033c7.176,-0 15.8,2.616 15.8,11.338c0,8.628 -8.239,12.313 -17.497,12.313c-7.169,-0 -17.154,-2.037 -17.54,-10.908l9.691,-0c0.872,3.587 3.733,4.604 7.754,4.604c5.575,-0 8.191,-1.888 8.191,-5.766c0,-4.847 -5.426,-5.863 -8.285,-5.863c-2.328,-0 -5.282,0.631 -7.029,2.324l-8.917,-0l3.248,-18.898Z" style="fill:#fff;fill-rule:nonzero;"/><path d="M36.067,34.486l3.49,-0l0,6.616l4.071,-0l0,-6.616l3.491,-0l0,17.302l-3.491,-0l0,-7.681l-4.071,-0l0,7.681l-3.49,-0l0,-17.302Z" style="fill:#fff;fill-rule:nonzero;"/><path d="M59.667,34.486l-0,2.859l-3.781,-0l-0,14.443l-3.491,-0l-0,-14.443l-3.78,-0l-0,-2.859l11.052,-0Z" style="fill:#fff;fill-rule:nonzero;"/><path d="M61.236,34.486l5.187,-0l2.47,12.212l0.047,-0l2.498,-12.212l5.159,-0l-0,17.302l-3.197,-0l-0,-13.812l-0.05,-0l-3.077,13.812l-2.712,-0l-3.077,-13.812l-0.05,-0l-0,13.812l-3.198,-0l-0,-17.302Z" style="fill:#fff;fill-rule:nonzero;"/><path d="M79.09,51.788l0,-17.302l3.49,-0l0,14.443l6.178,-0l0,2.859l-9.668,-0Z" style="fill:#fff;fill-rule:nonzero;"/><path d="M11.7,150.388l0,-25.019l5.047,0l0,20.883l8.938,0l0,4.136l-13.985,0Z" style="fill:#106eb8;fill-rule:nonzero;"/><path d="M36.875,138.825c-0.106,-2.874 -0.454,-4.485 -2.452,-4.485c-1.931,0 -2.489,1.997 -2.489,3.748l-0,0.737l4.941,0Zm-4.941,2.871l-0,1.508c-0,2.207 0.596,4.38 2.382,4.38c1.611,0 2.277,-1.226 2.559,-3.539l4.344,0c-0.174,4.379 -2.277,6.835 -6.833,6.835c-7.009,0 -7.288,-5.399 -7.288,-10.094c-0,-5.047 0.982,-9.742 7.499,-9.742c5.641,0 6.902,3.784 6.902,9.566l-0,1.086l-9.565,0Z" style="fill:#106eb8;fill-rule:nonzero;"/><path d="M52.972,131.535l4.836,0l-4.733,18.853l-5.607,0l-4.869,-18.853l5.044,0l2.701,13.49l0.069,0l2.559,-13.49Z" style="fill:#106eb8;fill-rule:nonzero;"/><path d="M68.681,138.825c-0.106,-2.874 -0.454,-4.485 -2.452,-4.485c-1.931,0 -2.489,1.997 -2.489,3.748l-0,0.737l4.941,0Zm-4.941,2.871l-0,1.508c-0,2.207 0.596,4.38 2.382,4.38c1.611,0 2.276,-1.226 2.559,-3.539l4.344,0c-0.174,4.379 -2.277,6.835 -6.833,6.835c-7.009,0 -7.288,-5.399 -7.288,-10.094c-0,-5.047 0.982,-9.742 7.499,-9.742c5.641,0 6.903,3.784 6.903,9.566l-0,1.086l-9.566,0Z" style="fill:#106eb8;fill-rule:nonzero;"/><rect x="76.014" y="125.369" width="4.836" height="25.019" style="fill:#106eb8;"/><rect x="84.539" y="144.923" width="4.624" height="5.466" style="fill:#106eb8;"/><path d="M98.076,150.388l0,-19.278l-5.435,0l0,-3.623l0.5,0c3.624,0 5.861,-1.387 6.401,-4.395l4.085,0l0,27.296l-5.551,0Z" style="fill:#106eb8;fill-rule:nonzero;"/><path d="M59.236,13.527c-25.203,0 -45.708,20.504 -45.708,45.708c-0,25.202 20.505,45.709 45.708,45.709c25.203,0 45.712,-20.507 45.712,-45.709c-0,-25.204 -20.509,-45.708 -45.712,-45.708m-0,104.941c-32.662,0 -59.236,-26.574 -59.236,-59.233c-0,-32.664 26.574,-59.235 59.236,-59.235c32.664,-0 59.236,26.571 59.236,59.235c-0,32.659 -26.572,59.233 -59.236,59.233" style="fill:#106eb8;fill-rule:nonzero;"/></g></svg>