<svg width="80" height="71" viewBox="0 0 80 71" fill="none" xmlns="http://www.w3.org/2000/svg">
<g clip-path="url(#clip0_17_76)">
<path d="M65.7739 23.0139C64.9229 22.7225 64.0649 22.4518 63.2 22.202C63.3438 21.6191 63.4771 21.0339 63.6 20.4464C65.5478 11.0091 64.2748 3.40376 59.92 0.898713C55.7461 -1.50225 48.9217 1.0028 42.0278 6.98785C41.3484 7.57768 40.6852 8.18486 40.0383 8.80939C39.6046 8.39304 39.1641 7.98594 38.7165 7.58809C31.4887 1.19363 24.2435 -1.49878 19.8957 1.00627C15.7322 3.41417 14.4974 10.565 16.2435 19.5096C16.422 20.3955 16.6191 21.2768 16.8348 22.1535C15.8157 22.4449 14.8243 22.7537 13.8783 23.0833C5.4087 26.0325 0 30.647 0 35.4351C0 40.3792 5.80869 45.3408 14.6296 48.342C15.3438 48.5871 16.0649 48.8138 16.793 49.022C16.5565 49.9634 16.3478 50.9118 16.167 51.8671C14.4904 60.6556 15.7983 67.6364 19.9583 70.0304C24.2504 72.5008 31.4574 69.961 38.48 63.8406C39.0365 63.3595 39.593 62.8483 40.1496 62.3071C40.8499 62.9848 41.5687 63.6417 42.3061 64.2778C49.1096 70.1137 55.8226 72.4661 59.9757 70.072C64.2713 67.5913 65.6661 60.0935 63.8539 50.9719C63.7148 50.278 63.5548 49.5679 63.3739 48.8416C63.8794 48.6935 64.3757 48.5397 64.8626 48.3801C74.0348 45.3477 80 40.4452 80 35.4351C80 30.6262 74.4174 25.9804 65.7739 23.0139ZM44.2783 9.56229C50.1843 4.43423 55.7043 2.41493 58.2261 3.85828C60.9043 5.39878 61.9409 11.6128 60.2574 19.7629C60.1484 20.2949 60.029 20.8234 59.8991 21.3485C56.374 20.5515 52.7998 19.9882 49.2 19.6623C47.1373 16.7068 44.8771 13.8936 42.4348 11.2416C43.033 10.6679 43.6452 10.1082 44.2713 9.56229H44.2783ZM23.6174 39.5188C24.3432 40.9159 25.1003 42.2921 25.8887 43.6476C26.6933 45.0354 27.5304 46.4036 28.4 47.7521C25.9234 47.4851 23.4622 47.0913 21.0261 46.5725C21.7357 44.2929 22.6052 41.9232 23.6209 39.5222L23.6174 39.5188ZM23.6174 31.504C22.6226 29.1516 21.7739 26.8374 21.0783 24.5995C23.3565 24.0895 25.7913 23.6731 28.327 23.3574C27.4783 24.6759 26.6609 26.0174 25.8748 27.3821C25.0864 28.7376 24.3362 30.1116 23.6174 31.504ZM25.433 35.5149C26.4858 33.329 27.622 31.1848 28.8417 29.0822C30.0522 26.9773 31.3438 24.9245 32.7165 22.9237C35.0957 22.7433 37.5339 22.6461 40 22.6461C42.4765 22.6461 44.9183 22.7433 47.2974 22.9237C48.6539 24.9245 49.9386 26.9716 51.1513 29.0649C52.371 31.1605 53.5212 33.2943 54.6017 35.4663C53.5351 37.6591 52.3896 39.8125 51.1652 41.9267C49.9525 44.0269 48.6725 46.0856 47.3252 48.1026C44.953 48.276 42.5009 48.3593 40 48.3593C37.5096 48.3593 35.0887 48.283 32.7583 48.1303C31.3762 46.118 30.073 44.0559 28.8487 41.944C27.629 39.8391 26.4904 37.6949 25.433 35.5114V35.5149ZM54.1287 43.6337C54.931 42.2389 55.7032 40.828 56.4452 39.4008C57.4616 41.6937 58.3579 44.0377 59.1304 46.4233C56.6673 46.9746 54.1769 47.3973 51.6696 47.6897C52.5136 46.3527 53.3322 44.9996 54.1252 43.6303L54.1287 43.6337ZM56.4104 31.5075C55.673 30.1104 54.9078 28.7272 54.1148 27.3579C53.331 26.0116 52.5194 24.6816 51.68 23.3678C54.2296 23.6905 56.6748 24.1172 58.9739 24.6412C58.2357 26.9726 57.3802 29.262 56.4104 31.5075ZM40.0348 13.6876C41.6994 15.4971 43.2712 17.3893 44.7443 19.357C41.5954 19.2066 38.4441 19.2066 35.2904 19.357C36.8452 17.3099 38.4348 15.4086 40.0348 13.6876ZM21.6139 3.95543C24.2922 2.41146 30.2052 4.61465 36.4452 10.1417C36.8452 10.4956 37.2452 10.8634 37.6452 11.245C35.1888 13.8974 32.9113 16.7093 30.8278 19.6623C27.2387 19.9837 23.6741 20.5365 20.1565 21.3173C19.9525 20.5031 19.7693 19.6819 19.607 18.8539V18.8608C18.1009 11.193 19.0991 5.41266 21.6139 3.96237V3.95543ZM17.7043 45.7398C17.0435 45.5501 16.3872 45.3454 15.7357 45.1256C12.3457 44.0619 9.18112 42.3847 6.4 40.178C5.60414 39.6323 4.92897 38.9295 4.41625 38.1131C3.90354 37.2967 3.56417 36.384 3.41913 35.4316C3.41913 32.5275 7.76 28.822 15.0017 26.3066C15.913 25.9874 16.8313 25.6982 17.7565 25.4392C18.8311 28.8797 20.1324 32.2456 21.6522 35.5149C20.1132 38.8317 18.7956 42.2462 17.7078 45.7363L17.7043 45.7398ZM36.2296 61.2836C33.6128 63.6778 30.5768 65.5713 27.273 66.8696C26.4028 67.2858 25.4563 67.5196 24.4919 67.5566C23.5275 67.5936 22.5658 67.433 21.6661 67.0847C19.1443 65.6275 18.0939 60.0276 19.5235 52.5124C19.6951 51.6219 19.8899 50.7383 20.1078 49.8616C23.6626 50.6225 27.2651 51.1418 30.8904 51.416C32.9908 54.3849 35.2844 57.2129 37.7565 59.8818C37.2603 60.3606 36.7525 60.8267 36.233 61.2801L36.2296 61.2836ZM40.1322 57.4254C38.5113 55.6836 36.8974 53.7545 35.3183 51.6797C36.8487 51.7399 38.4093 51.7699 40 51.7699C41.6301 51.7699 43.2394 51.7352 44.8278 51.6658C43.3622 53.6644 41.795 55.5868 40.1322 57.4254ZM60.887 62.1683C60.8133 63.1289 60.5429 64.0643 60.0924 64.9165C59.6419 65.7687 59.0209 66.5196 58.2678 67.1229C55.7461 68.5801 50.3548 66.6857 44.5391 61.6964C43.8736 61.1274 43.2035 60.5191 42.5287 59.8714C44.9532 57.1941 47.1937 54.3564 49.2348 51.3779C52.8804 51.0712 56.5005 50.5148 60.0696 49.7125C60.2319 50.3694 60.3756 51.0124 60.5009 51.6415C61.275 55.0985 61.4047 58.668 60.8835 62.1718L60.887 62.1683ZM63.7878 45.143C63.3461 45.2887 62.8974 45.4275 62.4383 45.5593C61.3202 42.1026 59.9676 38.7258 58.3896 35.4524C59.9093 32.2235 61.2107 28.8969 62.2852 25.4947C63.0991 25.7271 63.8957 25.9804 64.6609 26.2406C72.0696 28.7804 76.5843 32.5414 76.5843 35.4351C76.5843 38.523 71.7043 42.5269 63.7843 45.143H63.7878Z" fill="#61DAFB"/>
<path d="M40.0001 28.3083C41.4134 28.3084 42.7949 28.7265 43.97 29.5099C45.145 30.2933 46.0607 31.4067 46.6012 32.7093C47.1418 34.0119 47.2829 35.4452 47.0066 36.8278C46.7304 38.2104 46.0493 39.4802 45.0494 40.4766C44.0496 41.473 42.7759 42.1512 41.3896 42.4254C40.0033 42.6996 38.5666 42.5574 37.2612 42.017C35.9559 41.4765 34.8406 40.562 34.0564 39.3891C33.2722 38.2163 32.8543 36.8378 32.8557 35.428C32.8585 33.5397 33.6124 31.7297 34.9519 30.3955C36.2915 29.0612 38.1071 28.3083 40.0001 28.3083Z" fill="#61DAFB"/>
</g>
<defs>
<clipPath id="clip0_17_76">
<rect width="80" height="71" fill="white"/>
</clipPath>
</defs>
</svg>
